<?xml version="1.0" encoding="utf-8"?>
<!-- Generator: Adobe Illustrator 26.0.3, SVG Export Plug-In . SVG Version: 6.00 Build 0)  -->
<svg version="1.1" id="Layer_1" xmlns="http://www.w3.org/2000/svg" xmlns:xlink="http://www.w3.org/1999/xlink" x="0px" y="0px"
	 viewBox="0 0 16 16" style="enable-background:new 0 0 16 16;" xml:space="preserve">
<style type="text/css">
	.st0{fill:#FFFFFF;}
</style>
<path class="st0" d="M3.1,7.7C3.1,7.6,3.1,7.6,3.1,7.7c0-0.6,0-1.1,0-1.7c0,0,0,0,0,0c0,0,0,0,0,0c0.7,0,1.3,0,2,0c0,0,0,0,0.1,0
	c0,1.6,0,3.2,0,4.8c-0.6-0.7-1.2-1.3-1.8-2c0,0,0,0,0,0.1c0,0.4,0,0.7,0,1.1c0,0.2,0,0.3,0,0.5c0,0,0,0,0,0c-0.7,0-1.4,0-2,0
	c0,0,0,0,0,0c0-1.6,0-3.2,0-4.8C1.9,6.3,2.5,7,3.1,7.7C3.1,7.7,3.1,7.7,3.1,7.7z"/>
<path class="st0" d="M8.5,7.6c0.8,0,1.5,0,2.3,0c0,0,0,0,0,0c0,0.2,0,0.5,0,0.7c0,0.6-0.2,1.1-0.6,1.5c-0.3,0.3-0.7,0.6-1.2,0.7
	c-0.8,0.2-1.5,0-2-0.6c-0.5-0.4-0.7-1-0.7-1.6c0-1,0.4-1.7,1.2-2.2c0.3-0.2,0.7-0.2,1-0.3c0,0,0.1,0,0.1,0.1C8.5,6.4,8.5,7,8.5,7.6
	C8.5,7.5,8.5,7.5,8.5,7.6z M8.5,8.2c0-0.2,0-0.4,0-0.6c0-0.1,0-0.1-0.1-0.1c-0.3,0-0.6,0.3-0.6,0.7c0,0.4,0.3,0.6,0.6,0.7
	c0,0,0.1,0,0.1-0.1C8.5,8.6,8.5,8.4,8.5,8.2z"/>
<path class="st0" d="M15.1,7c-0.3,0-0.7,0-1,0c0,0,0,0.1,0,0.1c0,1.1,0,2.2,0,3.3c0,0.1,0,0.1-0.1,0.1c-0.5,0-1.1,0-1.6,0
	c-0.1,0-0.1,0-0.1-0.1c0-1.1,0-2.2,0-3.3c0,0,0,0,0-0.1c-0.3,0-0.7,0-1,0c0,0,0,0,0-0.1c0-0.3,0-0.6,0-0.9c0,0,0-0.1,0.1-0.1
	c1.2,0,2.5,0,3.7,0c0,0,0.1,0,0.1,0C15.2,6.3,15.2,6.6,15.1,7C15.2,7,15.2,7,15.1,7z"/>
</svg>
