<?xml version="1.0" encoding="utf-8"?>
<!-- Generator: Adobe Illustrator 26.0.3, SVG Export Plug-In . SVG Version: 6.00 Build 0)  -->
<svg version="1.1" id="Layer_1" xmlns="http://www.w3.org/2000/svg" xmlns:xlink="http://www.w3.org/1999/xlink" x="0px" y="0px"
	 viewBox="0 0 16 16" style="enable-background:new 0 0 16 16;" xml:space="preserve">
<style type="text/css">
	.st0{fill:#FFFFFF;}
</style>
<path class="st0" d="M2.2,7.7C2.2,7.6,2.2,7.6,2.2,7.7c0-0.7,0-1.3,0-1.9c0,0,0,0,0,0c0,0,0,0,0,0c0.7,0,1.5,0,2.2,0c0,0,0,0,0.1,0
	c0,1.8,0,3.6,0,5.5c-0.7-0.8-1.4-1.5-2.1-2.2c0,0,0,0.1,0,0.1c0,0.4,0,0.8,0,1.2c0,0.2,0,0.4,0,0.6c0,0,0,0.1-0.1,0.1
	c-0.8,0-1.6,0-2.3,0c0,0,0,0,0,0C0,9,0,7.2,0,5.3C0.7,6.1,1.4,6.9,2.2,7.7C2.2,7.7,2.2,7.7,2.2,7.7z"/>
<path class="st0" d="M8.3,7.5c0.9,0,1.7,0,2.6,0c0,0,0,0,0,0c0,0.3,0,0.5,0,0.8c0,0.6-0.3,1.2-0.7,1.7c-0.4,0.4-0.8,0.7-1.4,0.8
	c-0.9,0.2-1.7,0-2.4-0.7C6,9.7,5.7,9.1,5.7,8.4c0-1.1,0.5-1.9,1.4-2.5c0.4-0.2,0.8-0.3,1.2-0.3c0.1,0,0.1,0,0.1,0.1
	C8.3,6.3,8.3,6.9,8.3,7.5C8.3,7.5,8.3,7.5,8.3,7.5z M8.3,8.3c0-0.2,0-0.5,0-0.7c0-0.1,0-0.1-0.1-0.1c-0.4,0-0.7,0.4-0.7,0.8
	c0,0.4,0.3,0.7,0.7,0.8c0,0,0.1,0,0.1-0.1C8.3,8.8,8.3,8.5,8.3,8.3z"/>
<path class="st0" d="M16,6.9c-0.4,0-0.8,0-1.2,0c0,0,0,0.1,0,0.1c0,1.3,0,2.5,0,3.8c0,0.1,0,0.1-0.1,0.1c-0.6,0-1.3,0-1.9,0
	c-0.1,0-0.1,0-0.1-0.1c0-1.3,0-2.5,0-3.8c0,0,0-0.1,0-0.1c-0.4,0-0.8,0-1.2,0c0,0,0,0,0-0.1c0-0.4,0-0.7,0-1.1c0,0,0-0.1,0.1-0.1
	c1.4,0,2.9,0,4.3,0c0,0,0.1,0,0.1,0C16,6.1,16,6.5,16,6.9C16,6.8,16,6.9,16,6.9z"/>
</svg>
